<svg xmlns="http://www.w3.org/2000/svg" version="1.1" xmlns:xlink="http://www.w3.org/1999/xlink" xmlns:svgjs="http://svgjs.dev/svgjs" width="1000" height="625" viewBox="0 0 1000 625"><g transform="matrix(1,0,0,1,0,0)"><svg viewBox="0 0 512 320" data-background-color="#d9bca9" preserveAspectRatio="xMidYMid meet" height="625" width="1000" xmlns="http://www.w3.org/2000/svg" xmlns:xlink="http://www.w3.org/1999/xlink"><g id="tight-bounds" transform="matrix(1,0,0,1,0,0)"><svg viewBox="0 0 512 320" height="320" width="512"><g><svg></svg></g><g><svg viewBox="0 0 512 320" height="320" width="512"><g><path xmlns="http://www.w3.org/2000/svg" d="M96 160c0-88.366 71.634-160 160-160 88.366 0 160 71.634 160 160 0 88.366-71.634 160-160 160-88.366 0-160-71.634-160-160z" fill="#c56e33" fill-rule="nonzero" stroke="none" stroke-width="1" stroke-linecap="butt" stroke-linejoin="miter" stroke-miterlimit="10" stroke-dasharray="" stroke-dashoffset="0" font-family="none" font-weight="none" font-size="none" text-anchor="none" style="mix-blend-mode: normal" data-fill-palette-color="tertiary"></path></g><g transform="matrix(1,0,0,1,116.13999999999999,20.139999999999986)"><svg viewBox="0 0 279.72 279.72" height="279.72" width="279.72"><g><svg viewBox="0 0 279.72 279.72" height="279.72" width="279.72"><g><svg viewBox="0 0 279.72 279.72" height="279.72" width="279.72"><g id="textblocktransform"><svg viewBox="0 0 279.72 279.72" height="279.72" width="279.72" id="textblock"><g><svg viewBox="0 0 279.72 279.72" height="279.72" width="279.72"><g transform="matrix(1,0,0,1,57.446704652707865,57.446704652707865)"><svg viewBox="0 0 164.8265906945843 164.8265906945843" height="164.8265906945843" width="164.8265906945843"><g><circle r="82" cx="82.41329534729215" cy="82.41329534729215" fill="#551e19" data-fill-palette-color="accent"></circle></g></svg></g><g><path d="M33.059 86.706l-1.38 3.763c-0.302 0.025-0.733 0.052-1.293 0.083-0.567 0.028-1.217 0.06-1.951 0.098-0.738 0.029-1.542 0.062-2.413 0.1-0.87 0.038-1.774 0.07-2.711 0.097v0l-3.268 8.915 6.154 5.659-1.38 3.764-22.334-20.956c0.378-0.018 1.064-0.052 2.06-0.101 0.993-0.043 2.178-0.093 3.555-0.152 1.379-0.065 2.908-0.139 4.587-0.223 1.679-0.084 3.38-0.17 5.103-0.258 1.719-0.097 3.412-0.19 5.078-0.278 1.666-0.088 3.196-0.166 4.59-0.233 1.401-0.064 2.589-0.124 3.566-0.18 0.98-0.047 1.659-0.08 2.037-0.098zM11.589 91.996l5.731 5.269 2.314-6.311c-0.881 0.048-1.73 0.086-2.547 0.115-0.817 0.029-1.566 0.057-2.246 0.086-0.681 0.029-1.278 0.052-1.792 0.071-0.509 0.027-0.907 0.042-1.193 0.044v0c-0.06 0.007-0.241-0.003-0.546-0.029-0.307-0.02-0.586-0.047-0.837-0.082v0c0.217 0.129 0.446 0.292 0.688 0.488 0.242 0.196 0.385 0.312 0.428 0.349z" fill="#d9bca9" data-fill-palette-color="quaternary"></path><path d="M87.981 2.711l3.662-1.728 12.009 25.452c-0.506-0.257-1.418-0.62-2.735-1.087-1.314-0.476-2.829-1.02-4.547-1.632-1.712-0.614-3.524-1.252-5.436-1.913-1.912-0.661-3.72-1.292-5.426-1.894-1.706-0.602-3.21-1.152-4.511-1.649-1.307-0.494-2.195-0.861-2.663-1.099v0l-1.052-0.581 0.611 1.034 7.571 16.047-3.689 1.741-12.026-25.488c0.397 0.198 1.017 0.453 1.861 0.766 0.844 0.313 1.833 0.675 2.969 1.088 1.138 0.403 2.383 0.835 3.732 1.294 1.356 0.456 2.725 0.918 4.108 1.383 1.386 0.472 2.75 0.932 4.094 1.379 1.344 0.447 2.583 0.866 3.715 1.258 1.129 0.4 2.113 0.758 2.951 1.074 0.832 0.319 1.428 0.57 1.79 0.755v0l1.082 0.645-0.64-1.098z" fill="#d9bca9" data-fill-palette-color="quaternary"></path><path d="M205.053 8.583l3.747 1.534-10.662 26.045c-0.152-0.547-0.501-1.464-1.045-2.752-0.536-1.29-1.158-2.776-1.867-4.455-0.703-1.677-1.456-3.444-2.26-5.301-0.803-1.856-1.559-3.617-2.267-5.281-0.708-1.665-1.318-3.145-1.83-4.441-0.518-1.298-0.847-2.2-0.988-2.706v0l-0.281-1.168-0.351 1.148-6.722 16.421-3.775-1.545 10.677-26.082c0.122 0.426 0.353 1.056 0.692 1.89 0.339 0.834 0.74 1.808 1.202 2.924 0.471 1.112 0.993 2.321 1.566 3.627 0.579 1.308 1.164 2.63 1.754 3.964 0.587 1.341 1.17 2.658 1.748 3.951 0.578 1.293 1.105 2.49 1.581 3.589 0.468 1.103 0.868 2.071 1.201 2.902 0.327 0.829 0.544 1.439 0.651 1.83v0l0.255 1.233 0.377-1.213z" fill="#d9bca9" data-fill-palette-color="quaternary"></path><path d="M254.906 109.223l-1.383-3.763c0.214-0.214 0.525-0.514 0.933-0.899 0.414-0.388 0.889-0.833 1.425-1.337 0.544-0.5 1.136-1.045 1.775-1.637 0.639-0.592 1.307-1.201 2.004-1.828v0l-3.274-8.912-8.354-0.335-1.382-3.763 30.587 1.533c-0.276 0.258-0.778 0.728-1.505 1.409-0.73 0.675-1.601 1.48-2.613 2.416-1.01 0.942-2.128 1.988-3.354 3.137-1.226 1.15-2.467 2.316-3.724 3.498-1.248 1.186-2.479 2.352-3.693 3.498-1.213 1.145-2.33 2.194-3.35 3.146-1.026 0.955-1.894 1.77-2.603 2.444-0.717 0.67-1.214 1.135-1.489 1.393zM267.856 91.3l-7.778-0.311 2.317 6.309c0.641-0.606 1.263-1.185 1.868-1.735 0.604-0.55 1.157-1.056 1.658-1.518 0.501-0.462 0.941-0.867 1.32-1.213 0.371-0.35 0.665-0.619 0.882-0.806v0c0.041-0.044 0.186-0.154 0.435-0.331 0.247-0.183 0.477-0.343 0.691-0.479v0c-0.249 0.041-0.529 0.066-0.84 0.074-0.311 0.007-0.496 0.011-0.553 0.01z" fill="#d9bca9" data-fill-palette-color="quaternary"></path><path d="M21.174 183.58c-0.042 1.61-0.422 3.382-1.139 5.316-0.724 1.936-2.3 3.309-4.727 4.119v0c-1.588 0.53-2.936 0.354-4.042-0.526-1.108-0.887-1.921-1.884-2.437-2.99-0.526-1.11-0.998-2.294-1.418-3.551v0l-1.272-3.59-0.795-2.256c-0.131-0.394-0.099-0.709 0.098-0.944 0.199-0.229 0.521-0.417 0.966-0.565v0l8.267-2.716 1.782-0.594c0.947-0.316 1.813-0.566 2.599-0.751v0l4.575-1.399c0.521-0.174 1.3-0.42 2.338-0.738 1.038-0.318 1.698-0.51 1.979-0.575v0c0.205-0.04 0.556-0.143 1.052-0.309v0c0.87-0.29 1.477-0.535 1.82-0.734v0c0.042-0.042 0.102-0.076 0.178-0.102v0c0.146-0.049 0.303 0.051 0.47 0.299v0c0.159 0.222 0.483 0.845 0.973 1.868 0.496 1.021 0.888 1.963 1.176 2.827v0c0.786 2.357 0.935 4.38 0.447 6.069-0.48 1.693-2.033 2.977-4.657 3.852v0c-2.383 0.795-4.484 0.698-6.304-0.291v0c-0.756-0.468-1.399-1.041-1.929-1.719zM21.719 178.897c-0.248 0.083-0.471 0.143-0.67 0.181-0.193 0.036-0.34 0.071-0.442 0.105v0c-0.146 0.049-0.234 0.092-0.263 0.131-0.03 0.038-0.024 0.118 0.016 0.238v0c0.165 0.496 0.558 1.219 1.179 2.17 0.621 0.951 1.54 1.76 2.758 2.426 1.212 0.669 2.66 0.723 4.344 0.161v0c1.785-0.596 3.011-1.347 3.675-2.253 0.656-0.911 0.947-1.869 0.873-2.876-0.074-1.006-0.351-2.227-0.83-3.663v0l-2.398 0.716c-1.802 0.545-3.139 0.962-4.01 1.252v0zM7.827 184.813c0.81 2.427 1.805 4.118 2.984 5.074 1.189 0.959 2.44 1.219 3.756 0.78v0c3.323-1.109 5.103-3.288 5.339-6.537v0c0.048-1.421-0.205-2.922-0.76-4.502v0c-0.078-0.002-0.181 0.018-0.308 0.061v0c-0.129 0.015-0.419 0.098-0.871 0.248v0l-2.347 0.868-1.986 0.747c-0.349 0.117-0.602 0.187-0.756 0.21v0l-0.975 0.283-2.177 0.811-1.68 0.645c-0.299 0.1-0.462 0.214-0.49 0.343-0.019 0.133 0.013 0.303 0.096 0.509 0.083 0.205 0.141 0.359 0.175 0.46z" fill="#d9bca9" data-fill-palette-color="quaternary"></path><path d="M40.002 195.356c-0.549 0.193-1.891 0.812-4.028 1.858v0c-0.648 0.335-2.321 1.14-5.018 2.414v0c-2.598 1.231-4.177 1.991-4.736 2.281v0c-1.345 0.696-3.031 1.598-5.059 2.707-2.031 1.103-3.233 1.782-3.608 2.036v0c-0.125 0.095-0.279 0.19-0.463 0.285v0c-0.167 0.086-0.298 0.116-0.394 0.091-0.099-0.017-0.215-0.066-0.348-0.148v0c-0.16-0.091-0.391-0.428-0.693-1.011v0c-0.046-0.089-0.122-0.235-0.226-0.437-0.102-0.196-0.144-0.329-0.127-0.398 0.026-0.066 0.11-0.136 0.254-0.211v0l1.134-0.541 4.592-2.296 7.346-3.71c0.696-0.36 2.297-1.128 4.803-2.304v0c0.595-0.278 1.558-0.734 2.889-1.369 1.339-0.633 2.113-1.033 2.32-1.201v0l0.718-0.405c0.601-0.311 0.997-0.282 1.188 0.087v0l0.629 1.304c0.12 0.232 0.019 0.431-0.302 0.597v0c-0.119 0.062-0.259 0.119-0.42 0.172-0.164 0.062-0.314 0.129-0.451 0.199z" fill="#d9bca9" data-fill-palette-color="quaternary"></path><path d="M46.8 206.435c-0.486 0.533-1.079 1.372-1.779 2.518-0.7 1.145-1.288 2.183-1.765 3.114v0c-0.274 0.666-0.779 1.67-1.514 3.01-0.736 1.341-1.345 2.362-1.83 3.063v0c-0.236 0.375-0.516 0.868-0.84 1.48v0l-0.755 1.327-0.971 1.771c1.65-0.303 2.845-0.528 3.586-0.675v0l5.595-1.075 3.876-0.758c2.047-0.413 3.384-0.662 4.011-0.747v0c1.115-0.231 2.185-0.393 3.21-0.487 1.031-0.098 1.617-0.054 1.76 0.132v0c0.126 0.165 0.054 0.351-0.217 0.559v0c-0.25 0.192-0.621 0.396-1.113 0.613v0l-0.871 0.465c-0.629 0.347-3.148 2.213-7.56 5.597v0c-0.978 0.75-2.179 1.633-3.602 2.649-1.433 1.015-2.392 1.675-2.876 1.979v0c-0.575 0.373-1.391 0.966-2.449 1.777v0l-2.989 2.344-0.159 0.122c-0.25 0.192-0.4 0.21-0.452 0.055v0l-0.048-0.064c-0.082-0.106-0.184-0.218-0.308-0.334-0.123-0.117-0.242-0.249-0.356-0.398v0c-0.04-0.096-0.03-0.193 0.031-0.29 0.061-0.097 0.194-0.225 0.402-0.384v0l1.834-1.406c2.115-1.623 3.375-2.555 3.779-2.799v0c0.468-0.292 1.311-0.866 2.528-1.723 1.226-0.856 2.2-1.561 2.923-2.116v0c0.17-0.164 0.76-0.6 1.77-1.307v0l1.141-0.825 2.289-1.654c-0.317 0.016-0.631 0.058-0.942 0.126v0c-0.51 0.062-1.043 0.159-1.6 0.291v0l-0.86 0.166c-0.955 0.175-2.07 0.389-3.345 0.641-1.27 0.248-2.353 0.454-3.249 0.619v0c-1.039 0.198-2.361 0.46-3.966 0.788-1.611 0.332-2.877 0.603-3.798 0.811v0c-1.677 0.434-2.548 0.608-2.613 0.523v0c-0.049-0.064-0.017-0.236 0.097-0.517 0.113-0.281 0.183-0.466 0.209-0.553v0c0.118-0.319 0.427-0.918 0.925-1.799 0.493-0.876 0.95-1.623 1.37-2.241v0c0.278-0.408 0.913-1.748 1.906-4.02v0c0.855-1.846 1.306-2.804 1.353-2.875v0c0.256-0.525 0.735-1.336 1.439-2.433v0c0.34-0.624 0.663-1.15 0.967-1.578v0l-1.42 0.988-2.161 1.557-6.179 4.639-4.872 3.687c-0.191 0.147-0.344 0.184-0.459 0.111-0.124-0.074-0.236-0.186-0.335-0.338-0.099-0.152-0.182-0.27-0.247-0.355v0l-0.558-0.661c-0.328-0.339-0.555-0.591-0.681-0.756v0c-0.241-0.314-0.315-0.548-0.223-0.703 0.101-0.154 0.378-0.387 0.83-0.701v0c0.68-0.522 1.323-1.032 1.929-1.53v0l3.778-2.999c0.585-0.448 1.207-0.892 1.866-1.331 0.661-0.448 1.249-0.853 1.765-1.214v0c1.575-1.039 2.663-1.789 3.264-2.251v0l5.9-4.425 1.649-1.316c0.728-0.559 1.181-0.826 1.36-0.802v0c0.113 0.015 0.202 0.065 0.267 0.15v0c0.045 0.058 0.095 0.168 0.15 0.328 0.051 0.155 0.159 0.317 0.323 0.486v0c0.164 0.17 0.374 0.422 0.631 0.757v0c0.302 0.393 0.503 0.699 0.603 0.918v0c0.084 0.231 0.039 0.481-0.134 0.749-0.178 0.263-0.394 0.543-0.648 0.839-0.249 0.292-0.439 0.523-0.572 0.692z" fill="#d9bca9" data-fill-palette-color="quaternary"></path><path d="M83.933 237.748c1.383 0.793 2.648 2.007 3.794 3.645 1.14 1.634 1.743 3.762 1.807 6.385 0.055 2.625-0.878 5.615-2.8 8.968v0c-1.755 3.063-3.813 4.964-6.174 5.703-2.367 0.736-4.482 0.863-6.345 0.383-1.863-0.481-3.326-1.026-4.39-1.635v0l-2.809-1.564c-0.513-0.263-1.133-0.603-1.86-1.019v0c-0.43-0.246-0.424-0.756 0.019-1.529v0l0.54-0.861 0.904-1.74 0.844-1.554 0.55-1.04c0.589-1.23 1.311-2.591 2.167-4.085v0c0.506-0.883 1.219-2.027 2.139-3.429v0c0.926-1.4 1.655-2.564 2.187-3.495v0l2.573-4.57c0.187-0.379 0.41-0.796 0.669-1.249v0c0.143-0.25 0.395-0.306 0.757-0.169 0.359 0.128 0.718 0.303 1.077 0.525 0.354 0.218 0.6 0.367 0.74 0.447v0l1.26 0.629c0.98 0.5 1.763 0.918 2.351 1.254zM74.532 254.317c0.786 0.057 1.586-0.026 2.399-0.247v0c1.759-0.443 3.067-1.412 3.923-2.905v0c0.819-1.43 0.932-2.886 0.338-4.369v0c-0.267-0.639-0.642-1.217-1.126-1.733v0c-0.24 0.526-0.438 0.926-0.595 1.199v0c-0.246 0.43-0.626 1.039-1.139 1.826v0c-0.489 0.746-0.839 1.303-1.048 1.668v0c-0.336 0.587-0.904 1.524-1.704 2.811v0c-0.246 0.376-0.596 0.959-1.048 1.75z" fill="#d9bca9" data-fill-palette-color="quaternary"></path><path d="M114.988 254.574c-0.156 0.499-0.338 0.947-0.546 1.345v0c-0.143 0.369-0.375 0.504-0.695 0.404v0c-0.102-0.032-0.232-0.1-0.389-0.206-0.163-0.107-0.289-0.188-0.376-0.244v0c-0.355-0.188-1.431-0.563-3.228-1.124v0l-1.407-0.482c-0.318-0.127-0.787-0.288-1.407-0.482v0c-0.448-0.14-0.787-0.232-1.019-0.276v0c-0.764-0.183-1.434-0.364-2.009-0.543v0l-1.974-0.659c-0.198-0.062-0.323-0.055-0.374 0.02-0.054 0.082-0.131 0.285-0.233 0.611v0c-0.14 0.448-0.273 0.83-0.401 1.148v0c-0.363 0.981-0.641 1.782-0.835 2.403v0l-0.689 2.205c-0.164 0.524-0.276 0.928-0.336 1.211v0c0.19 0.087 0.525 0.206 1.004 0.356v0c0.414 0.157 1.283 0.443 2.606 0.857v0c0.543 0.17 1.347 0.393 2.412 0.669v0c0.815 0.199 1.347 0.337 1.597 0.415v0c0.352 0.11 0.694 0.238 1.027 0.384 0.34 0.148 0.596 0.249 0.769 0.303v0c0.326 0.102 0.442 0.303 0.348 0.604v0c-0.03 0.096-0.088 0.236-0.173 0.419-0.084 0.177-0.172 0.416-0.266 0.717v0l-0.582 1.997c-0.07 0.224-0.143 0.369-0.221 0.437-0.073 0.076-0.173 0.093-0.301 0.053v0c-0.077-0.024-0.176-0.076-0.298-0.156-0.129-0.082-0.241-0.138-0.337-0.169v0c-0.224-0.07-0.639-0.214-1.244-0.431-0.601-0.209-1.426-0.477-2.475-0.805v0c-1.125-0.352-2.115-0.608-2.97-0.77-0.85-0.153-1.365-0.258-1.544-0.314v0c-0.275-0.086-0.431-0.149-0.468-0.188v0c-0.128-0.04-0.201-0.077-0.218-0.11v0l-1.168 3.74c0.179 0.056 0.32 0.086 0.424 0.09v0l1.057 0.289 4.433 1.343c0.895 0.28 1.601 0.514 2.117 0.703v0l2.568 0.845 1.585 0.453c0.3 0.094 0.48 0.227 0.538 0.399 0.054 0.164 0.042 0.371-0.036 0.621v0l-0.272 0.736-0.856 2.606c-0.126 0.403-0.288 0.619-0.487 0.648-0.201 0.036-0.462-0.004-0.784-0.119-0.322-0.115-0.582-0.203-0.78-0.265v0c-1.074-0.336-1.994-0.637-2.76-0.904v0l-3.805-1.231c-0.294-0.092-1.802-0.521-4.524-1.287v0l-1.431-0.405-0.233-0.031c-0.153-0.048-0.229-0.121-0.226-0.218 0.002-0.098 0.043-0.271 0.12-0.52v0c0.065-0.275 0.199-0.738 0.403-1.39v0c0.062-0.198 0.117-0.42 0.165-0.664 0.048-0.245 0.135-0.568 0.261-0.971v0l1.601-5.121c0.156-0.499 0.327-0.979 0.513-1.44 0.18-0.463 0.305-0.807 0.374-1.03v0c0.462-1.119 0.857-2.203 1.184-3.252v0c0.406-1.298 0.687-2.333 0.844-3.104v0c0.219-0.858 0.438-1.639 0.658-2.342v0c0.489-1.566 1.097-3.387 1.823-5.462v0c0.102-0.326 0.234-0.523 0.395-0.592 0.157-0.077 0.348-0.081 0.572-0.011v0l0.554 0.215c0.224 0.07 0.579 0.202 1.065 0.396 0.487 0.194 1.091 0.404 1.814 0.63v0c0.825 0.258 1.82 0.498 2.985 0.722v0c1.373 0.324 2.283 0.555 2.73 0.695v0c1.023 0.32 1.949 0.647 2.777 0.984v0l1.331 0.458c0.326 0.102 0.516 0.246 0.57 0.43 0.05 0.177 0.013 0.464-0.11 0.861v0c-0.072 0.23-0.167 0.625-0.286 1.184v0c-0.153 0.668-0.303 1.239-0.451 1.712z" fill="#d9bca9" data-fill-palette-color="quaternary"></path><path d="M130.483 259.24c0.073 0.845 0.294 2.698 0.663 5.559v0l0.58 3.931 0.669-2.268c0.31-1.025 0.607-2.196 0.89-3.512v0c0.053-0.365 0.224-1.001 0.512-1.907 0.288-0.913 0.503-1.599 0.644-2.058v0c0.992-2.836 1.488-4.61 1.485-5.322v0c-0.004-0.679 0.089-1.088 0.281-1.229 0.199-0.147 0.421-0.204 0.668-0.172 0.246 0.031 0.409 0.05 0.489 0.055v0c2.472 0.18 4.019 0.333 4.641 0.459v0c0.285 0.048 0.475 0.112 0.57 0.193 0.101 0.088 0.147 0.199 0.137 0.332v0c-0.009 0.127-0.064 0.331-0.165 0.613v0c-0.152 0.331-0.471 1.306-0.959 2.922v0l-0.252 0.838c-1.328 4.86-2.337 8.245-3.027 10.155v0c-0.536 1.64-1.171 4.085-1.904 7.337v0c-0.632 2.493-0.975 3.801-1.032 3.924v0c-0.099 0.255-0.192 0.426-0.279 0.513-0.087 0.088-0.207 0.126-0.361 0.115v0l-0.618-0.085-2.637-0.041c-1.832-0.026-2.928-0.052-3.288-0.079v0c-0.421-0.031-0.68-0.16-0.778-0.389-0.104-0.229-0.176-0.621-0.216-1.174v0c-0.212-1.325-0.89-4.978-2.033-10.957v0c-0.148-0.823-0.639-3.952-1.472-9.386v0l-0.894-5.565c-0.038-0.211-0.056-0.343-0.051-0.397v0c0.015-0.207 0.166-0.3 0.453-0.279v0c0.16 0.012 0.343 0.045 0.547 0.1 0.204 0.055 0.423 0.091 0.657 0.108v0l1.96 0.063 2.39 0.093c0.472-0.019 0.78 0.074 0.927 0.279 0.139 0.212 0.245 0.555 0.318 1.031v0c0.055 0.347 0.173 1.769 0.354 4.267v0z" fill="#d9bca9" data-fill-palette-color="quaternary"></path><path d="M166.014 254.283c0.071 0.518 0.097 1.001 0.078 1.45v0c0.027 0.395-0.125 0.616-0.457 0.661v0c-0.106 0.015-0.252 0.008-0.439-0.021-0.193-0.028-0.341-0.048-0.444-0.061v0c-0.402-0.019-1.535 0.099-3.4 0.356v0l-1.478 0.163c-0.342 0.02-0.835 0.074-1.479 0.162v0c-0.465 0.064-0.811 0.125-1.04 0.184v0c-0.769 0.16-1.452 0.281-2.049 0.363v0l-2.066 0.243c-0.206 0.028-0.316 0.087-0.331 0.177-0.014 0.097 0.003 0.314 0.05 0.653v0c0.064 0.465 0.106 0.868 0.125 1.21v0c0.089 1.042 0.178 1.886 0.267 2.529v0l0.314 2.289c0.075 0.544 0.145 0.957 0.211 1.239v0c0.209-0.002 0.563-0.037 1.061-0.105v0c0.442-0.034 1.349-0.145 2.723-0.334v0c0.564-0.078 1.387-0.218 2.467-0.42v0c0.822-0.167 1.363-0.268 1.622-0.304v0c0.365-0.05 0.729-0.08 1.093-0.09 0.37-0.01 0.645-0.028 0.824-0.052v0c0.338-0.047 0.529 0.086 0.572 0.398v0c0.014 0.1 0.021 0.251 0.022 0.453 0 0.196 0.021 0.45 0.064 0.762v0l0.323 2.055c0.032 0.232 0.027 0.395-0.014 0.489-0.034 0.099-0.117 0.158-0.25 0.176v0c-0.08 0.011-0.192 0.006-0.336-0.014-0.151-0.02-0.277-0.023-0.377-0.009v0c-0.232 0.032-0.669 0.078-1.309 0.139-0.633 0.067-1.494 0.175-2.582 0.325v0c-1.168 0.161-2.173 0.349-3.016 0.566-0.835 0.223-1.345 0.347-1.531 0.373v0c-0.285 0.039-0.453 0.049-0.503 0.028v0c-0.133 0.018-0.214 0.016-0.244-0.007v0l0.533 3.882c0.186-0.026 0.327-0.058 0.423-0.098v0l1.079-0.189 4.584-0.671c0.929-0.128 1.667-0.216 2.215-0.264v0l2.683-0.328 1.627-0.264c0.312-0.043 0.531 0.001 0.657 0.133 0.119 0.126 0.196 0.318 0.231 0.577v0l0.067 0.781 0.334 2.723c0.057 0.418 0.003 0.683-0.165 0.794-0.166 0.118-0.42 0.193-0.76 0.226-0.34 0.033-0.613 0.064-0.819 0.092v0c-1.115 0.153-2.076 0.272-2.882 0.356v0l-3.967 0.504c-0.305 0.042-1.853 0.295-4.642 0.76v0l-1.468 0.242-0.223 0.072c-0.159 0.022-0.259-0.012-0.298-0.102-0.039-0.089-0.077-0.263-0.112-0.522v0c-0.058-0.276-0.134-0.752-0.227-1.429v0c-0.028-0.206-0.073-0.429-0.133-0.671-0.06-0.242-0.119-0.572-0.176-0.99v0l-0.731-5.315c-0.071-0.518-0.121-1.025-0.148-1.522-0.034-0.496-0.067-0.86-0.1-1.091v0c-0.058-1.209-0.162-2.358-0.311-3.446v0c-0.185-1.347-0.371-2.403-0.557-3.169v0c-0.167-0.87-0.3-1.669-0.401-2.399v0c-0.223-1.626-0.448-3.532-0.674-5.719v0c-0.047-0.338-0.011-0.573 0.106-0.704 0.11-0.137 0.281-0.221 0.513-0.253v0l0.592-0.041c0.232-0.032 0.61-0.064 1.133-0.095 0.523-0.031 1.16-0.099 1.91-0.201v0c0.856-0.118 1.859-0.323 3.008-0.617v0c1.38-0.291 2.302-0.469 2.767-0.532v0c1.062-0.146 2.039-0.243 2.931-0.291v0l1.399-0.152c0.338-0.047 0.572 0.003 0.7 0.147 0.121 0.139 0.209 0.414 0.266 0.826v0c0.033 0.239 0.115 0.637 0.245 1.193v0c0.146 0.67 0.253 1.25 0.32 1.741z" fill="#d9bca9" data-fill-palette-color="quaternary"></path><path d="M180.912 247.01l0.67 2.013c0.659 2.042 1.177 3.565 1.554 4.568v0l2.145 5.516c0.355 0.869 0.706 1.767 1.054 2.695v0l1.429 4.035 0.247 0.744 0.413 1.015 0.559 1.26 5.316-1.791 4.379-1.6 0.075-0.028c0.151-0.056 0.245-0.063 0.282-0.02 0.044 0.041 0.075 0.104 0.093 0.19 0.02 0.093 0.04 0.164 0.059 0.214v0c0.016 0.101 0.091 0.281 0.224 0.539 0.139 0.256 0.249 0.493 0.331 0.712v0c0.066 0.176 0.048 0.308-0.055 0.396-0.107 0.097-0.253 0.174-0.439 0.23-0.187 0.056-0.33 0.102-0.431 0.14v0l-1.986 0.627c-1.768 0.492-3.007 0.871-3.716 1.137v0c-0.784 0.294-2.737 1.113-5.86 2.457v0l-3.3 1.357c-0.539 0.202-0.901 0.059-1.085-0.43v0l-1.073-2.86-4.464-12.351c-0.348-0.928-1.044-2.592-2.087-4.99v0l-1.836-4.462c-0.158-0.42-0.08-0.689 0.234-0.807v0c0.125-0.047 0.35-0.088 0.673-0.124 0.323-0.035 0.569-0.085 0.738-0.148v0c0.719-0.162 1.555-0.423 2.508-0.78v0c0.665-0.249 1.276-0.518 1.833-0.806v0c0.351-0.189 0.618-0.26 0.8-0.215 0.186 0.038 0.32 0.166 0.402 0.386v0c0.066 0.176 0.114 0.361 0.145 0.557 0.031 0.196 0.087 0.404 0.169 0.624z" fill="#d9bca9" data-fill-palette-color="quaternary"></path><path d="M201.836 233.411c2.197-1.413 4.251-1.841 6.162-1.285 1.91 0.556 3.574 1.596 4.992 3.121 1.422 1.531 2.832 3.383 4.23 5.558v0c1.13 1.758 2.028 3.737 2.694 5.937 0.662 2.194 0.855 4.284 0.578 6.269-0.28 1.98-1.223 3.486-2.829 4.518v0c-3.144 2.021-6.083 2.039-8.816 0.054-2.733-1.985-5.076-4.497-7.029-7.534v0c-1.88-2.924-2.985-5.523-3.315-7.795-0.324-2.276-0.138-4.135 0.559-5.578 0.706-1.441 1.631-2.529 2.774-3.265zM212.017 249.322c0.592-0.38 0.819-0.992 0.683-1.836-0.136-0.844-0.502-1.728-1.096-2.652v0c-0.565-0.879-1.197-1.559-1.897-2.042-0.7-0.482-1.281-0.574-1.743-0.277v0c-0.547 0.351-0.715 0.993-0.506 1.926 0.213 0.938 0.602 1.847 1.167 2.726v0c0.58 0.901 1.142 1.579 1.688 2.032 0.544 0.462 1.112 0.503 1.704 0.123z" fill="#d9bca9" data-fill-palette-color="quaternary"></path><path d="M223.247 215.777c1.344-1.204 2.919-1.751 4.724-1.641 1.8 0.115 3.664 1.127 5.591 3.037v0c1.266 1.254 2.003 2.518 2.212 3.791 0.209 1.273 0.108 2.403-0.304 3.39-0.412 0.996-0.885 1.764-1.418 2.301v0c-0.495 0.5-1.277 1.398-2.347 2.696v0c-0.603 0.761-1.107 1.364-1.512 1.811v0c1.665 1.726 2.805 2.893 3.419 3.502v0c2.412 2.391 3.749 3.659 4.01 3.804v0c0.223 0.146 0.354 0.342 0.393 0.588 0.039 0.237 0.004 0.457-0.104 0.661-0.113 0.199-0.261 0.34-0.445 0.422v0c-0.071 0.033-0.236 0.181-0.496 0.442v0c-0.552 0.557-1.105 1.187-1.661 1.89v0c-0.254 0.333-0.507 0.469-0.758 0.409-0.247-0.065-0.536-0.263-0.87-0.593v0c-0.409-0.406-0.771-0.783-1.085-1.132v0l-2.312-2.348-3.24-3.311c-3.821-4.014-6.836-7.114-9.043-9.302v0c-0.666-0.66-1.075-1.047-1.228-1.159v0c-0.442-0.363-0.701-0.582-0.777-0.658v0c-0.481-0.476-0.619-0.817-0.417-1.021v0c0.094-0.095 0.29-0.278 0.588-0.55 0.307-0.271 0.717-0.666 1.23-1.185v0c0.146-0.147 0.514-0.538 1.104-1.17 0.589-0.623 1.216-1.27 1.881-1.94v0c0.976-0.985 1.931-1.896 2.865-2.734zM231.276 225.446c0.679-0.685 1.109-1.528 1.288-2.528 0.18-1-0.258-2.024-1.313-3.071v0c-1.132-1.122-2.22-1.743-3.263-1.861-1.047-0.114-2.095 0.192-3.143 0.917v0c-1.662 1.116-2.861 2.102-3.596 2.957v0c0.519 0.514 0.899 0.91 1.142 1.189v0c1.004 1.061 1.702 1.842 2.092 2.342v0c0.576 0.722 1.29 1.467 2.142 2.235v0l1.141 1.018 1.38-1.221c0.557-0.448 1.267-1.107 2.13-1.977z" fill="#d9bca9" data-fill-palette-color="quaternary"></path><path d="M243.201 195.112c0.438 0.285 0.82 0.582 1.147 0.89v0c0.317 0.238 0.384 0.497 0.2 0.778v0c-0.058 0.09-0.159 0.196-0.303 0.318-0.147 0.128-0.259 0.227-0.336 0.297v0c-0.277 0.291-0.929 1.225-1.956 2.802v0l-0.845 1.225c-0.209 0.272-0.49 0.68-0.845 1.224v0c-0.256 0.393-0.436 0.695-0.542 0.906v0c-0.383 0.686-0.738 1.282-1.067 1.787v0l-1.168 1.722c-0.113 0.174-0.141 0.296-0.082 0.366 0.064 0.074 0.239 0.204 0.525 0.389v0c0.393 0.256 0.725 0.488 0.997 0.697v0c0.847 0.615 1.542 1.1 2.087 1.454v0l1.937 1.261c0.46 0.3 0.819 0.517 1.074 0.651v0c0.136-0.159 0.341-0.45 0.615-0.871v0c0.264-0.356 0.774-1.115 1.53-2.277v0c0.311-0.477 0.743-1.191 1.297-2.14v0c0.412-0.731 0.689-1.206 0.831-1.425v0c0.201-0.309 0.417-0.604 0.648-0.885 0.235-0.287 0.401-0.506 0.5-0.658v0c0.186-0.286 0.411-0.344 0.676-0.172v0c0.084 0.055 0.203 0.148 0.357 0.28 0.148 0.128 0.354 0.278 0.618 0.451v0l1.765 1.1c0.196 0.128 0.317 0.238 0.36 0.331 0.053 0.09 0.043 0.192-0.03 0.304v0c-0.044 0.067-0.121 0.149-0.231 0.245-0.114 0.102-0.198 0.194-0.254 0.279v0c-0.128 0.196-0.378 0.557-0.751 1.081-0.364 0.522-0.846 1.244-1.445 2.165v0c-0.643 0.988-1.158 1.872-1.545 2.65-0.378 0.777-0.618 1.244-0.72 1.401v0c-0.157 0.241-0.26 0.374-0.308 0.4v0c-0.073 0.112-0.128 0.172-0.165 0.18v0l3.284 2.137c0.102-0.157 0.17-0.285 0.202-0.384v0l0.564-0.94 2.492-3.904c0.512-0.786 0.928-1.402 1.251-1.847v0l1.508-2.244 0.865-1.403c0.172-0.264 0.349-0.401 0.53-0.409 0.173-0.007 0.369 0.06 0.588 0.202v0l0.635 0.461 2.277 1.53c0.354 0.23 0.518 0.445 0.492 0.644-0.02 0.203-0.129 0.444-0.327 0.723-0.198 0.279-0.353 0.506-0.466 0.679v0c-0.614 0.943-1.153 1.747-1.618 2.412v0l-2.214 3.329c-0.168 0.258-0.989 1.594-2.464 4.007v0l-0.778 1.268-0.092 0.216c-0.088 0.135-0.178 0.188-0.271 0.159-0.093-0.029-0.249-0.114-0.469-0.257v0c-0.247-0.137-0.656-0.391-1.229-0.764v0c-0.174-0.113-0.372-0.226-0.594-0.339-0.222-0.113-0.51-0.284-0.864-0.514v0l-4.497-2.926c-0.438-0.285-0.854-0.58-1.247-0.884-0.397-0.298-0.694-0.512-0.891-0.639v0c-0.952-0.747-1.888-1.421-2.809-2.02v0c-1.14-0.742-2.06-1.293-2.76-1.653v0c-0.767-0.443-1.459-0.865-2.077-1.267v0c-1.375-0.895-2.964-1.973-4.764-3.233v0c-0.286-0.186-0.441-0.367-0.463-0.541-0.032-0.172 0.016-0.357 0.144-0.554v0l0.357-0.475c0.128-0.196 0.351-0.503 0.67-0.918 0.319-0.416 0.684-0.941 1.097-1.576v0c0.471-0.724 0.972-1.617 1.503-2.678v0c0.683-1.234 1.152-2.047 1.408-2.44v0c0.585-0.898 1.151-1.701 1.699-2.407v0l0.801-1.157c0.186-0.286 0.376-0.431 0.569-0.433 0.184 0 0.45 0.113 0.798 0.34v0c0.202 0.132 0.556 0.33 1.063 0.595v0c0.602 0.328 1.111 0.627 1.526 0.898z" fill="#d9bca9" data-fill-palette-color="quaternary"></path><path d="M273.808 178.141c0.666-0.139 1.083-0.177 1.253-0.115v0c0.101 0.037 0.138 0.119 0.113 0.245-0.021 0.135-0.047 0.243-0.077 0.325-0.033 0.088-0.058 0.157-0.077 0.208v0l-1.425 4.197c-0.072 0.195-0.213 0.314-0.422 0.358-0.218 0.048-0.583 0.088-1.094 0.12v0c-0.411-0.009-0.982 0.029-1.715 0.115v0c-1.061 0.164-3.03 0.4-5.907 0.706v0l-4.331 0.528 1.992 0.609 2.859 0.844c3.339 1.072 5.199 1.621 5.582 1.649v0c0.104 0.01 0.231 0.043 0.382 0.098v0c0.44 0.163 0.572 0.48 0.397 0.951v0c-0.053 0.144-0.111 0.262-0.173 0.354v0c-0.194 0.371-0.498 1.344-0.91 2.92v0c-0.287 1.065-0.471 1.708-0.553 1.927v0c-0.119 0.32-0.257 0.512-0.416 0.575-0.167 0.067-0.396 0.046-0.685-0.061v0l-0.834-0.351-2.157-0.713c-2.604-0.8-4.851-1.55-6.742-2.25v0c-0.98-0.363-1.638-0.649-1.974-0.86v0c-0.571-0.347-2.277-1.046-5.116-2.097v0c-2.965-1.098-5.225-1.881-6.78-2.349v0c-0.204-0.047-0.479-0.134-0.825-0.263v0c-0.389-0.144-0.659-0.283-0.809-0.417-0.142-0.138-0.203-0.254-0.183-0.347 0.018-0.086 0.068-0.243 0.152-0.468v0l0.221-0.829c0.433-1.768 0.835-3.152 1.205-4.15v0c1.016-2.745 2.485-4.551 4.406-5.419 1.925-0.859 4.015-0.871 6.27-0.036v0c1.784 0.66 3.286 1.87 4.506 3.629v0c0.528 0.753 0.957 1.554 1.285 2.405v0l5.62-0.855c4.083-0.631 6.404-1.025 6.962-1.183zM255.155 183.234c0.135-0.364 0.185-0.721 0.15-1.069v0c-0.065-0.81-0.587-1.396-1.567-1.759v0c-0.71-0.263-1.279-0.345-1.708-0.246-0.421 0.094-0.694 0.311-0.819 0.65v0c-0.1 0.27-0.089 0.539 0.034 0.805v0c0.016 0.034 0.189 0.098 0.518 0.192 0.321 0.097 0.642 0.205 0.962 0.324v0c0.27 0.1 0.461 0.182 0.574 0.245v0c0.384 0.256 0.795 0.466 1.235 0.628v0l0.315 0.16z" fill="#d9bca9" data-fill-palette-color="quaternary"></path><path d="M10.151 139.437c0-1.784 1.446-3.23 3.23-3.229 1.784 0 3.23 1.446 3.229 3.229 0 1.784-1.446 3.23-3.229 3.23-1.784 0-3.23-1.446-3.23-3.23z" fill="#d9bca9" data-fill-palette-color="quaternary"></path><path d="M263.095 139.437c0-1.784 1.446-3.23 3.229-3.229 1.784 0 3.23 1.446 3.23 3.229 0 1.784-1.446 3.23-3.23 3.23-1.784 0-3.23-1.446-3.229-3.23z" fill="#d9bca9" data-fill-palette-color="quaternary"></path></g></svg></g></svg></g></svg></g><g></g></svg></g></svg></g></svg></g><defs></defs></svg><rect width="512" height="320" fill="none" stroke="none" visibility="hidden"></rect></g></svg></g></svg>